<svg version="1.2" xmlns="http://www.w3.org/2000/svg" viewBox="0 0 336 344" width="336" height="344">
	<title>logo-svg</title>
	<style>
		.s0 { opacity: .3;fill: #7e7ef7 } 
		.s1 { fill: #7e7ef7 } 
	</style>
	<path id="Layer" class="s0" d="m228.6 149.1l-17.1 16.4c9.8 10.5 15.8 24.5 15.8 40 0 13.8-4.8 26.4-12.7 36.4l17.3 16.2c11.9-14.3 19.1-32.6 19.1-52.6 0-21.8-8.5-41.6-22.4-56.4z"/>
	<path id="Layer" class="s1" d="m143.8 126.6c-34 10.2-58.8 41.7-58.8 78.9 0 40.1 28.8 73.5 66.9 80.9q8 1.6 16.6 1.6c25.5-0.1 48.3-11.7 63.4-29.9l-17.3-16.2c-10.8 13.7-27.7 22.5-46.6 22.5-32.7 0-59.3-26.4-59.3-58.9 0-32.5 26.6-58.9 59.3-58.9 17.2 0 32.7 7.2 43.5 18.9l17.1-16.4c-15-15.9-36.4-26-60.1-26.1q-13 0.1-24.7 3.6z"/>
	<path id="Layer" fill-rule="evenodd" class="s1" d="m121 100c0-24.3 21-44 47-44 26 0 47 19.7 47 44v44h-23.5v-44c0-12.2-10.5-22-23.5-22-13 0-23.5 9.8-23.5 22v44h-23.5z"/>
</svg>